PathFileType        4      (X/Y/Z)      C:\Users\pc\Desktop\IMUTRC\Sujet_05\Sujet_05_velo_80.trc         
DataRate	CameraRate	NumFrames	NumMarkers	Units	OrigDataRate	OrigDataStartFrame	OrigNumFrames
60.0	60.0	4	64	mm	60.0	619	990
Frame#	Time	pHipOrigin			pRightASI			pLeftASI			pRightCSI			pLeftCSI			pRightIschialTub			pLeftIschialTub			pSacrum			pL5SpinalProcess			pL3SpinalProcess			pT12SpinalProcess			pIJ			pT4SpinalProcess			pT8SpinalProcess			pPX			pC7SpinalProcess			pTopOfHead			pRightAuricularis			pLeftAuricularis			pBackOfHead			pRightAcromion			pLeftAcromion			pRightArmLatEpicondyle			pRightArmMedEpicondyle			pLeftArmLatEpicondyle			pLeftArmMedEpicondyle			pRightUlnarStyloid			pRightRadialStyloid			pRightOlecranon			pLeftUlnarStyloid			pLeftRadialStyloid			pLeftOlecranon			pRightTopOfHand			pRightPinky			pRightBallHand			pLeftTopOfHand			pLeftPinky			pLeftBallHand			pRightGreaterTrochanter			pRightKneeLatEpicondyle			pRightKneeMedEpicondyle			pRightPatella			pLeftGreaterTrochanter			pLeftKneeLatEpicondyle			pLeftKneeMedEpicondyle			pLeftPatella			pRightTibialTub			pRightLatMalleolus			pRightMedMalleolus			pLeftTibialTub			pLeftLatMalleolus			pLeftMedMalleolus			pRightHeelFoot			pRightFirstMetatarsal			pRightFifthMetatarsal			pRightPivotFoot			pRightHeelCenter			pRightToe			pLeftHeelFoot			pLeftFirstMetatarsal			pLeftFifthMetatarsal			pLeftPivotFoot			pLeftHeelCenter			pLeftToe			
		X1	Y1	Z1	X2	Y2	Z2	X3	Y3	Z3	X4	Y4	Z4	X5	Y5	Z5	X6	Y6	Z6	X7	Y7	Z7	X8	Y8	Z8	X9	Y9	Z9	X10	Y10	Z10	X11	Y11	Z11	X12	Y12	Z12	X13	Y13	Z13	X14	Y14	Z14	X15	Y15	Z15	X16	Y16	Z16	X17	Y17	Z17	X18	Y18	Z18	X19	Y19	Z19	X20	Y20	Z20	X21	Y21	Z21	X22	Y22	Z22	X23	Y23	Z23	X24	Y24	Z24	X25	Y25	Z25	X26	Y26	Z26	X27	Y27	Z27	X28	Y28	Z28	X29	Y29	Z29	X30	Y30	Z30	X31	Y31	Z31	X32	Y32	Z32	X33	Y33	Z33	X34	Y34	Z34	X35	Y35	Z35	X36	Y36	Z36	X37	Y37	Z37	X38	Y38	Z38	X39	Y39	Z39	X40	Y40	Z40	X41	Y41	Z41	X42	Y42	Z42	X43	Y43	Z43	X44	Y44	Z44	X45	Y45	Z45	X46	Y46	Z46	X47	Y47	Z47	X48	Y48	Z48	X49	Y49	Z49	X50	Y50	Z50	X51	Y51	Z51	X52	Y52	Z52	X53	Y53	Z53	X54	Y54	Z54	X55	Y55	Z55	X56	Y56	Z56	X57	Y57	Z57	X58	Y58	Z58	X59	Y59	Z59	X60	Y60	Z60	X61	Y61	Z61	X62	Y62	Z62	X63	Y63	Z63	X64	Y64	Z64	
619	10.3	0.0	1249.99512	7.654012613289058E-14	71.75952000000001	1335.72398	124.73867000000008	47.00885999999999	1353.17117	-123.28956999999991	26.54754000000001	1397.86146	112.50826000000009	5.970299999999995	1412.41044	-93.90178999999992	-45.03808	1191.68327	52.747300000000074	-55.29772	1198.92878	-50.42873999999993	-62.60119	1267.44231	7.477360000000081	-29.96742	1368.35775	10.259640000000084	23.59138	1475.93906	9.680000000000089	79.70059	1570.65235	7.071620000000092	338.74201	1608.67678	-11.187069999999924	222.00238	1710.46168	-3.651739999999909	149.19951	1654.2945	2.086710000000092	242.52166	1527.93283	-3.535809999999921	268.89531	1745.12419	-6.49197999999991	535.53002	1832.47604	-35.242149999999924	453.6268	1777.35221	47.472570000000076	433.4553	1784.36587	-97.37962999999992	416.06608	1830.96898	-18.66442999999991	282.86465	1674.35007	191.1655000000001	268.66345	1671.45186	-198.46896999999993	350.39279	1415.25068	179.28286000000006	332.71375	1410.26577	124.97053000000007	369.23111	1432.69787	-176.79040999999995	348.42201	1424.409	-123.98513999999994	445.56979	1196.26243	178.29747000000006	488.40524	1221.12902	184.55759000000006	317.93291	1405.97643	150.70658000000006	473.21865	1217.30339	-175.51519999999994	514.31517	1244.14075	-184.49962999999994	335.78585	1420.64134	-147.63447999999994	494.66536	1137.19705	344.19064	468.98727	1133.13956	261.88166	474.31997	1175.39537	203.16406000000006	591.11756	1164.55609	-316.0201	533.1535	1157.36854	-252.43351999999996	511.12715	1198.34914	-196.73004999999995	19.93964000000001	1208.84064	146.0114900000001	210.64142	904.76114	100.27784000000004	218.23472	913.39778	30.778920000000042	246.57914	931.71443	69.44095000000004	14.201199999999991	1238.40231	-149.89507999999992	356.65291	1121.43082	-147.22872999999998	364.99974	1130.35729	-77.84573999999996	371.08596	1163.91848	-116.27591999999996	253.47687	868.47563	61.557840000000034	84.74347	532.22607	83.75808000000004	82.94658	534.48667	24.171020000000027	396.59015	1088.50723	-118.59447999999996	232.08813	750.51875	-146.41723999999996	240.2031	746.98294	-87.40980999999996	1.4491000000000034	490.02823	55.64551000000003	127.63688	395.95255	1.5070700000000163	132.62179	389.5765	79.52670000000002	147.63448	379.43279	37.27090000000001	34.08287	468.75542	51.819880000000026	211.51088	330.68501	29.15593000000001	172.21125	681.25169	-113.14585999999997	327.32309	631.2287	-79.41076999999997	324.54082	629.54774	-157.77819	347.03087	623.28762	-118.13076999999997	210.11975	671.57169	-114.30513999999997	423.60141	597.60954	-120.33339999999998	
620	10.317	0.0	1249.99512	7.654012613289058E-14	71.17988000000001	1337.05715	124.15903000000009	47.18274999999999	1352.06985	-124.15902999999992	25.909940000000006	1399.02074	111.11712000000009	5.912329999999994	1411.48302	-95.46681999999991	-45.09604	1192.08902	53.15305000000007	-55.06586	1198.34914	-50.08094999999993	-62.65916	1267.38434	7.129580000000081	-30.19928	1368.41572	9.100360000000085	23.24359	1476.05499	8.34683000000009	79.29484	1570.76828	5.970300000000091	338.45219	1608.90863	-10.607419999999923	221.6546	1710.63557	-3.477839999999909	148.79376	1654.46839	1.565030000000092	242.17388	1528.10672	-3.941559999999921	268.54753	1745.35605	-5.854369999999911	535.4141	1832.53401	-33.677119999999924	453.33698	1777.23629	48.74778000000008	433.28141	1784.71365	-96.04645999999991	415.89219	1831.14287	-17.215329999999913	281.35759	1673.88635	191.3393900000001	269.41699	1672.49522	-198.3530399999999	350.27686	1415.30865	178.76119000000006	332.82968	1410.43966	124.39089000000007	369.86872	1433.50936	-177.19615999999994	348.71183	1424.93068	-124.56477999999994	446.32332	1196.78411	177.71783000000005	489.04284	1221.76662	184.03592000000006	317.93291	1406.0344	150.18490000000006	473.74033	1218.05692	-176.44261999999995	514.77889	1244.95225	-185.31112999999993	336.24956	1421.33691	-148.15615999999994	495.59278	1137.83465	343.61099	469.9147	1133.7192	261.35998	475.13146	1176.03297	202.64238000000006	591.46535	1165.65741	-317.12142	533.55925	1158.35393	-253.53482999999997	511.59086	1199.10267	-197.71543999999994	21.21485000000001	1210.81141	146.3592700000001	222.23424	913.10796	102.30658000000004	229.13196	921.39682	32.69173000000004	257.07064	941.04664	71.06395000000005	13.505629999999991	1235.62004	-149.7791499999999	352.82728	1109.89597	-147.46058999999997	361.92764	1119.92376	-78.30945999999996	368.59351	1152.55753	-117.37723999999996	262.17148	875.31539	62.83305000000004	76.6285	547.87637	83.00455000000002	74.65772	550.71661	23.41748000000003	395.19901	1079.00112	-119.00022999999996	245.3619	734.17288	-145.89555999999996	253.76669	731.10079	-86.88813999999998	-8.810539999999996	510.31565	55.87736000000003	111.98658	409.5741	1.4491000000000183	117.20335	403.42991	79.46874000000001	131.40454	392.24285	37.15497000000001	22.663950000000003	487.41985	51.93580000000003	192.6146	340.36501	28.92407000000001	188.73101	662.23948	-113.08789999999998	345.81363	619.40403	-78.42537999999998	343.55303	617.60714	-156.7928	366.10105	612.39038	-117.02944999999998	227.10322	654.35636	-114.01531999999997	443.7729	590.19014	-118.71040999999998	
621	10.333	0.0	1249.99512	7.654012613289058E-14	70.42634000000001	1338.68015	123.46346000000008	47.414609999999996	1350.79464	-125.08645999999992	24.98251000000001	1400.35392	109.55209000000009	5.854369999999994	1410.43966	-97.20573999999992	-45.15401	1192.55273	53.61676000000007	-54.71808	1197.59561	-49.73316999999993	-62.71712	1267.32638	6.665870000000081	-30.54706	1368.41572	7.7671900000000855	22.66395	1476.17092	6.839760000000089	78.59928	1571.00013	4.695090000000092	337.81459	1609.43031	-9.969819999999924	220.90106	1710.98336	-3.3039499999999085	148.04023	1654.75821	0.9274300000000922	241.59424	1528.51247	-4.347309999999922	267.79399	1745.81976	-5.100839999999909	534.77649	1832.93976	-31.822269999999918	452.52548	1777.35221	50.31281000000008	432.70177	1785.52515	-94.48142999999992	415.25458	1831.60658	-15.534369999999912	279.15495	1673.53857	191.62921000000009	269.82274	1673.94432	-198.23710999999992	349.75519	1415.59847	178.18154000000007	332.65579	1410.84541	123.63736000000007	370.27447	1434.72661	-177.65986999999996	348.71183	1425.85811	-125.20238999999994	446.96093	1197.59561	176.96430000000007	489.56452	1222.75201	183.28238000000005	317.58513	1406.26625	149.48933000000005	473.97218	1219.2162	-177.54393999999994	515.06871	1246.11153	-186.35447999999994	336.48141	1422.38026	-148.67782999999994	496.40428	1138.76208	342.7995	470.66823	1134.64663	260.54849	475.76907	1176.90243	201.83088000000006	591.58128	1167.2804	-318.51255	533.73314	1159.80303	-254.92596999999998	511.88068	1200.37788	-198.93267999999995	22.49006000000001	1213.01405	146.7070600000001	235.27615	923.3676	104.50921000000004	241.53627	931.30868	34.778440000000046	268.83735	952.4076	72.86083000000005	12.578199999999992	1232.43201	-149.6632199999999	347.49459	1095.46292	-147.75040999999996	357.6383	1106.64998	-78.88909999999996	364.99974	1138.18244	-118.76837999999995	272.43112	884.01	64.16622000000004	71.00598	565.90319	81.90323000000002	68.91928	569.49697	22.374130000000033	392.4747	1066.53885	-119.81172999999995	256.83878	715.85624	-145.66369999999998	265.70729	713.13193	-86.71424999999998	-16.403829999999996	533.38535	55.52958000000004	98.59688	426.20979	0.7535300000000201	103.98754	420.0656	78.77317000000002	117.26131	408.00907	36.40143000000002	13.853410000000004	508.80859	51.47209000000003	175.63113	352.94321	28.05461000000001	203.16406	641.89409	-113.37771999999997	361.46393	604.97098	-77.67184999999999	359.84093	603.17409	-156.03927	382.27303	598.76882	-116.10202999999998	241.76813	635.46008	-114.01531999999997	460.69841	579.58271	-117.31927	
622	10.35	0.0	1249.99512	7.654012613289058E-14	69.44095000000002	1340.12925	122.94179000000008	47.994249999999994	1349.63536	-125.83998999999991	23.939160000000008	1401.5132	108.10299000000009	6.086229999999993	1409.45428	-98.82873999999991	-45.3279	1193.01645	53.964550000000074	-54.25437	1196.958	-49.55927999999993	-62.83305	1267.21045	6.08623000000008	-30.89485	1368.41572	6.434010000000085	22.20024	1476.28685	5.448620000000089	78.0776	1571.11606	3.6517400000000917	337.35088	1609.72013	-8.810539999999923	220.32142	1711.27318	-2.7243099999999085	147.46059	1654.99007	0.6376000000000923	241.07256	1528.80229	-4.347309999999922	267.21435	1746.05162	-3.9995199999999094	534.31278	1833.40347	-29.27184999999992	451.88787	1777.46814	52.457480000000075	432.41195	1786.22072	-92.39471999999992	414.73291	1831.95437	-13.273769999999914	276.95232	1672.95893	192.26681000000008	270.40238	1675.1036	-197.77339999999992	349.23351	1415.77236	177.83376000000007	332.48189	1411.13523	123.17364000000008	370.68021	1435.65403	-177.83375999999996	348.94369	1426.55368	-125.55016999999994	447.59853	1198.23321	176.32669000000007	490.08619	1223.62147	182.64478000000005	317.29531	1406.38218	149.08358000000007	474.37793	1220.14363	-178.47136999999995	515.47446	1247.09692	-187.22393999999994	336.8292	1423.19176	-148.96764999999994	497.27374	1139.57358	342.16189	471.47973	1135.40016	259.91088	476.40667	1177.71393	201.19328000000004	591.75517	1168.67154	-319.78776	534.02296	1160.96232	-256.08525	512.22847	1201.36327	-199.91806999999994	23.35952000000001	1215.10076	147.0548400000001	248.83974	934.90245	106.71185000000004	254.69411	942.61167	36.923110000000044	281.0098	965.15969	74.83161000000004	11.592809999999991	1229.30195	-149.4893299999999	340.71279	1078.8852	-147.63447999999997	351.89986	1090.99969	-79.12094999999995	360.18872	1121.43082	-119.63783999999995	283.2704	894.38557	65.90515000000005	67.99185	585.37912	81.03377000000005	65.96311	589.66846	21.56263000000003	387.83758	1051.98987	-120.39136999999995	265.47543	696.38031	-145.19998999999999	274.92357	694.00379	-86.30849999999997	-21.040959999999995	557.26655	55.065860000000036	88.33724	444.46847	0.1738900000000218	93.78586	438.32428	78.13556000000003	106.3061	425.51422	35.76383000000002	7.941080000000004	531.24068	51.00838000000004	161.89364	367.55015	27.30108000000001	214.17723	620.9111	-113.43567999999998	373.23063	588.50918	-76.57052999999999	372.24524	586.82822	-154.99592	394.50345	583.00259	-114.88477999999999	252.95519	615.52044	-113.84142999999997	473.45051	566.13505	-115.52239	
